<?xml version="1.0" standalone="no"?>
<!DOCTYPE svg PUBLIC "-//W3C//DTD SVG 20010904//EN"
 "http://www.w3.org/TR/2001/REC-SVG-20010904/DTD/svg10.dtd">
<svg version="1.0" xmlns="http://www.w3.org/2000/svg"
 width="30.000000pt" height="30.000000pt" viewBox="0 0 30.000000 30.000000"
 preserveAspectRatio="xMidYMid meet">

<g transform="translate(0.000000,30.000000) scale(0.100000,-0.100000)"
fill="#000000" stroke="none">
<path d="M97 192 c-26 -29 -22 -77 9 -101 31 -24 53 -26 77 -8 25 18 27 70 3
75 -10 2 -16 0 -12 -6 3 -6 0 -13 -6 -15 -7 -3 -2 -6 12 -6 23 -1 23 -2 7 -18
-13 -13 -23 -15 -44 -7 -23 8 -28 15 -28 44 0 27 6 37 25 47 l25 13 -26 0
c-14 0 -33 -8 -42 -18z"/>
</g>
</svg>
